# Blender v2.82 (sub 7) OBJ File: ''
# www.blender.org
mtllib cone.mtl
o Cone
v 0.000000 -1.000000 -1.000000
v 0.707107 -1.000000 -0.707107
v 1.000000 -1.000000 -0.000000
v 0.707107 -1.000000 0.707107
v -0.000000 -1.000000 1.000000
v -0.707107 -1.000000 0.707106
v 0.000000 1.000000 0.000000
v -1.000000 -1.000000 -0.000001
v -0.707106 -1.000000 -0.707108
vt 0.250000 0.250000
vt 0.080294 0.080294
vt 0.250000 0.010000
vt 0.750000 0.490000
vt 0.919706 0.419706
vt 0.990000 0.250000
vt 0.919706 0.080294
vt 0.750000 0.010000
vt 0.580294 0.080294
vt 0.510000 0.250000
vt 0.580295 0.419706
vt 0.080295 0.419706
vt 0.010000 0.250000
vt 0.419706 0.080294
vt 0.490000 0.250000
vt 0.250000 0.490000
vt 0.419706 0.419706
vn -0.3474 0.4194 0.8387
vn 0.0000 -1.0000 0.0000
vn -0.8387 0.4194 -0.3474
vn 0.3474 0.4194 0.8387
vn -0.8387 0.4194 0.3474
vn 0.8387 0.4194 0.3474
vn -0.3474 0.4194 -0.8387
vn 0.3474 0.4194 -0.8387
vn 0.8387 0.4194 -0.3474
usemtl None
s off
f 7/1/1 6/2/1 5/3/1
f 1/4/2 2/5/2 3/6/2 4/7/2 5/8/2 6/9/2 8/10/2 9/11/2
f 7/1/3 9/12/3 8/13/3
f 4/14/4 7/1/4 5/8/4
f 7/1/5 8/10/5 6/2/5
f 3/15/6 7/1/6 4/7/6
f 7/1/7 1/16/7 9/12/7
f 2/5/8 1/16/8 7/1/8
f 2/17/9 7/1/9 3/6/9
