# Blender v2.82 (sub 7) OBJ File: ''
# www.blender.org
mtllib leaf.mtl
o Sphere.001
v 0.468173 -0.287134 0.190318
v 0.593627 -0.269425 0.096376
v 0.591059 -0.143995 0.097429
v 0.465152 -0.139643 0.191558
v -0.685674 -0.277199 -0.015397
v -0.581723 -0.293513 0.098590
v -0.584292 -0.168083 0.099643
v -0.687692 -0.178648 -0.014569
v 0.324848 -0.301320 0.260219
v 0.321492 -0.137436 0.261595
v -0.763152 -0.257743 -0.145521
v -0.764542 -0.189860 -0.144950
v 0.169162 -0.311436 0.303390
v 0.165599 -0.137459 0.304851
v -0.811180 -0.235893 -0.286780
v -0.811888 -0.201286 -0.286490
v 0.007098 -0.317097 0.318175
v 0.003466 -0.139711 0.319663
v 0.819078 -0.202481 -0.289851
v 0.834284 -0.178423 -0.436880
v 0.818369 -0.167875 -0.289561
v -0.827913 -0.212489 -0.433749
v -0.155116 -0.318082 0.304002
v -0.158678 -0.144105 0.305463
v 0.772518 -0.226269 -0.148413
v 0.771128 -0.158387 -0.147843
v -0.311247 -0.314356 0.261417
v -0.314604 -0.150473 0.262793
v 0.696392 -0.248873 -0.018000
v 0.694374 -0.150323 -0.017172
v -0.455294 -0.306059 0.192058
v -0.458315 -0.158569 0.193296
v -0.000177 0.035533 0.292140
v -0.162253 0.027771 0.278468
v 0.817659 -0.133687 -0.294930
v 0.769733 -0.091325 -0.158376
v -0.317969 0.011431 0.237365
v 0.692350 -0.052963 -0.032464
v -0.461345 -0.012860 0.170411
v 0.588483 -0.020079 0.077967
v -0.586868 -0.044167 0.080180
v 0.462123 0.006066 0.168672
v -0.689716 -0.081288 -0.029860
v 0.318125 0.024468 0.236166
v -0.765936 -0.122797 -0.155484
v 0.162026 0.034417 0.277856
v -0.812600 -0.167098 -0.291859
v -0.589353 0.073473 0.040951
v -0.691669 0.011140 -0.060683
v 0.459201 0.144396 0.122542
v 0.314879 0.178171 0.184910
v -0.767281 -0.059132 -0.176715
v 0.158579 0.197587 0.223443
v -0.813285 -0.134641 -0.302683
v -0.003692 0.201899 0.236660
v 0.816973 -0.101230 -0.305754
v -0.165699 0.190940 0.224054
v 0.768389 -0.027658 -0.179607
v -0.321216 0.165133 0.186109
v 0.690398 0.039465 -0.063287
v -0.464266 0.125469 0.124282
v 0.585998 0.097561 0.038737
v 0.816339 -0.071752 -0.321615
v 0.767145 0.030164 -0.210720
v -0.168886 0.339134 0.144314
v -0.324218 0.304729 0.110994
v 0.688592 0.123410 -0.108456
v -0.466968 0.251101 0.056681
v 0.583700 0.204402 -0.018753
v -0.591651 0.180314 -0.016539
v 0.456499 0.270028 0.054941
v -0.693474 0.095085 -0.105853
v 0.311877 0.317765 0.109796
v -0.768524 -0.001309 -0.207828
v 0.155393 0.345780 0.143702
v -0.813919 -0.105164 -0.318545
v -0.006942 0.352995 0.155358
v 0.454120 0.378135 -0.031533
v 0.309234 0.437888 0.013711
v -0.695063 0.167320 -0.163633
v -0.769619 0.048448 -0.247628
v 0.152587 0.473301 0.041698
v -0.814478 -0.079799 -0.338834
v -0.009802 0.483015 0.051355
v 0.815781 -0.046387 -0.341905
v -0.171692 0.466656 0.042310
v 0.766050 0.079920 -0.250520
v -0.326861 0.424851 0.014909
v 0.687003 0.195645 -0.166237
v -0.469347 0.359210 -0.029793
v 0.581677 0.296340 -0.092294
v -0.593674 0.272252 -0.090080
v 0.458981 -0.286768 0.177686
v 0.455959 -0.140760 0.178991
v 0.579353 -0.145026 0.086729
v 0.581923 -0.269193 0.085608
v -0.671945 -0.276545 -0.023936
v -0.673921 -0.178990 -0.023047
v -0.572593 -0.168634 0.088898
v -0.570079 -0.292803 0.087778
v 0.318509 -0.300835 0.246204
v 0.315162 -0.138597 0.247644
v -0.747859 -0.257171 -0.151453
v -0.749224 -0.189978 -0.150835
v 0.165913 -0.310852 0.288525
v 0.162371 -0.138619 0.290045
v -0.794909 -0.235425 -0.289872
v -0.795607 -0.201177 -0.289555
v 0.007057 -0.316435 0.303017
v 0.003460 -0.140825 0.304565
v 0.802791 -0.202681 -0.292881
v 0.802086 -0.168433 -0.292564
v 0.817748 -0.179359 -0.438181
v -0.811356 -0.212748 -0.435113
v -0.151949 -0.317368 0.289123
v -0.155461 -0.145133 0.290644
v 0.757192 -0.226326 -0.154288
v 0.755806 -0.159133 -0.153671
v -0.304988 -0.313614 0.247379
v -0.308283 -0.151375 0.248818
v 0.682616 -0.248784 -0.026487
v 0.680598 -0.151230 -0.025599
v -0.446173 -0.305319 0.179391
v -0.449132 -0.159310 0.180696
v -0.158963 0.023305 0.264188
v -0.000111 0.030913 0.277591
v 0.754439 -0.093429 -0.163990
v 0.801390 -0.134949 -0.297823
v -0.311582 0.007289 0.223899
v 0.678614 -0.055831 -0.040582
v -0.452100 -0.016521 0.158270
v 0.576828 -0.023598 0.067657
v -0.575118 -0.047207 0.069827
v 0.452991 0.002029 0.156565
v -0.675905 -0.083592 -0.038031
v 0.311863 0.020066 0.222725
v -0.750590 -0.124275 -0.161155
v 0.158869 0.029819 0.263590
v -0.796304 -0.167693 -0.294814
v -0.677818 0.006974 -0.068232
v -0.577553 0.068069 0.031385
v 0.308681 0.170691 0.172494
v 0.450127 0.137585 0.111361
v -0.751907 -0.061899 -0.181956
v 0.155491 0.189724 0.210265
v -0.796975 -0.135905 -0.305414
v -0.003554 0.193952 0.223222
v 0.800718 -0.103161 -0.308424
v -0.162341 0.183211 0.210863
v 0.753122 -0.031054 -0.184791
v -0.314763 0.157915 0.173668
v 0.676701 0.034734 -0.070783
v -0.454964 0.119035 0.113065
v 0.574393 0.091677 0.029216
v 0.751903 0.025595 -0.215273
v 0.800097 -0.074290 -0.323959
v -0.317706 0.294715 0.100058
v -0.165465 0.328440 0.132718
v 0.674932 0.116988 -0.115042
v -0.457612 0.242149 0.046819
v 0.572141 0.196373 -0.027120
v -0.579804 0.172765 -0.024950
v 0.447480 0.260698 0.045114
v -0.679587 0.089227 -0.112491
v 0.305739 0.307493 0.098883
v -0.753125 -0.005250 -0.212439
v 0.152368 0.334954 0.132119
v -0.797596 -0.107035 -0.320949
v -0.006740 0.342026 0.143544
v 0.303150 0.426350 0.003705
v 0.445157 0.367659 -0.040550
v -0.754220 0.043960 -0.251872
v -0.681180 0.160678 -0.169739
v 0.149606 0.461139 0.031083
v -0.798150 -0.081954 -0.341051
v -0.009570 0.470687 0.040530
v 0.799548 -0.049209 -0.344060
v -0.168255 0.454625 0.031682
v 0.750831 0.074805 -0.254707
v -0.320348 0.413572 0.004880
v 0.673380 0.188439 -0.172290
v -0.459996 0.349107 -0.038845
v 0.570168 0.287325 -0.099977
v -0.581834 0.263714 -0.097808
vt 0.281250 0.687500
vt 0.281250 0.750000
vt 0.250000 0.750000
vt 0.250000 0.687500
vt 0.281250 0.187500
vt 0.281250 0.250000
vt 0.250000 0.250000
vt 0.250000 0.187500
vt 0.281250 0.625000
vt 0.250000 0.625000
vt 0.281250 0.125000
vt 0.250000 0.125000
vt 0.281250 0.562500
vt 0.250000 0.562500
vt 0.281250 0.062500
vt 0.250000 0.062500
vt 0.281250 0.500000
vt 0.250000 0.500000
vt 0.281250 0.937500
vt 0.265625 1.000000
vt 0.250000 0.937500
vt 0.265625 0.000000
vt 0.281250 0.437500
vt 0.250000 0.437500
vt 0.281250 0.875000
vt 0.250000 0.875000
vt 0.281250 0.375000
vt 0.250000 0.375000
vt 0.281250 0.812500
vt 0.250000 0.812500
vt 0.281250 0.312500
vt 0.250000 0.312500
vt 0.218750 0.500000
vt 0.218750 0.437500
vt 0.218750 0.937500
vt 0.218750 0.875000
vt 0.218750 0.375000
vt 0.218750 0.812500
vt 0.218750 0.312500
vt 0.218750 0.750000
vt 0.218750 0.250000
vt 0.218750 0.687500
vt 0.218750 0.187500
vt 0.218750 0.625000
vt 0.218750 0.125000
vt 0.218750 0.562500
vt 0.218750 0.062500
vt 0.234375 1.000000
vt 0.234375 0.000000
vt 0.187500 0.250000
vt 0.187500 0.187500
vt 0.187500 0.687500
vt 0.187500 0.625000
vt 0.187500 0.125000
vt 0.187500 0.562500
vt 0.187500 0.062500
vt 0.187500 0.500000
vt 0.203125 1.000000
vt 0.187500 0.937500
vt 0.203125 0.000000
vt 0.187500 0.437500
vt 0.187500 0.875000
vt 0.187500 0.375000
vt 0.187500 0.812500
vt 0.187500 0.312500
vt 0.187500 0.750000
vt 0.156250 0.937500
vt 0.156250 0.875000
vt 0.156250 0.437500
vt 0.156250 0.375000
vt 0.156250 0.812500
vt 0.156250 0.312500
vt 0.156250 0.750000
vt 0.156250 0.250000
vt 0.156250 0.687500
vt 0.156250 0.187500
vt 0.156250 0.625000
vt 0.156250 0.125000
vt 0.156250 0.562500
vt 0.156250 0.062500
vt 0.156250 0.500000
vt 0.171875 1.000000
vt 0.171875 0.000000
vt 0.125000 0.687500
vt 0.125000 0.625000
vt 0.125000 0.187500
vt 0.125000 0.125000
vt 0.125000 0.562500
vt 0.125000 0.062500
vt 0.125000 0.500000
vt 0.140625 1.000000
vt 0.125000 0.937500
vt 0.140625 0.000000
vt 0.125000 0.437500
vt 0.125000 0.875000
vt 0.125000 0.375000
vt 0.125000 0.812500
vt 0.125000 0.312500
vt 0.125000 0.750000
vt 0.125000 0.250000
vt 0.281250 0.687500
vt 0.250000 0.687500
vt 0.250000 0.750000
vt 0.281250 0.750000
vt 0.281250 0.187500
vt 0.250000 0.187500
vt 0.250000 0.250000
vt 0.281250 0.250000
vt 0.281250 0.625000
vt 0.250000 0.625000
vt 0.281250 0.125000
vt 0.250000 0.125000
vt 0.281250 0.562500
vt 0.250000 0.562500
vt 0.281250 0.062500
vt 0.250000 0.062500
vt 0.281250 0.500000
vt 0.250000 0.500000
vt 0.281250 0.937500
vt 0.250000 0.937500
vt 0.265625 1.000000
vt 0.265625 0.000000
vt 0.281250 0.437500
vt 0.250000 0.437500
vt 0.281250 0.875000
vt 0.250000 0.875000
vt 0.281250 0.375000
vt 0.250000 0.375000
vt 0.281250 0.812500
vt 0.250000 0.812500
vt 0.281250 0.312500
vt 0.250000 0.312500
vt 0.218750 0.437500
vt 0.218750 0.500000
vt 0.218750 0.875000
vt 0.218750 0.937500
vt 0.218750 0.375000
vt 0.218750 0.812500
vt 0.218750 0.312500
vt 0.218750 0.750000
vt 0.218750 0.250000
vt 0.218750 0.687500
vt 0.218750 0.187500
vt 0.218750 0.625000
vt 0.218750 0.125000
vt 0.218750 0.562500
vt 0.218750 0.062500
vt 0.234375 1.000000
vt 0.234375 0.000000
vt 0.187500 0.187500
vt 0.187500 0.250000
vt 0.187500 0.625000
vt 0.187500 0.687500
vt 0.187500 0.125000
vt 0.187500 0.562500
vt 0.187500 0.062500
vt 0.187500 0.500000
vt 0.187500 0.937500
vt 0.203125 1.000000
vt 0.203125 0.000000
vt 0.187500 0.437500
vt 0.187500 0.875000
vt 0.187500 0.375000
vt 0.187500 0.812500
vt 0.187500 0.312500
vt 0.187500 0.750000
vt 0.156250 0.875000
vt 0.156250 0.937500
vt 0.156250 0.375000
vt 0.156250 0.437500
vt 0.156250 0.812500
vt 0.156250 0.312500
vt 0.156250 0.750000
vt 0.156250 0.250000
vt 0.156250 0.687500
vt 0.156250 0.187500
vt 0.156250 0.625000
vt 0.156250 0.125000
vt 0.156250 0.562500
vt 0.156250 0.062500
vt 0.156250 0.500000
vt 0.171875 1.000000
vt 0.171875 0.000000
vt 0.125000 0.625000
vt 0.125000 0.687500
vt 0.125000 0.125000
vt 0.125000 0.187500
vt 0.125000 0.562500
vt 0.125000 0.062500
vt 0.125000 0.500000
vt 0.125000 0.937500
vt 0.140625 1.000000
vt 0.140625 0.000000
vt 0.125000 0.437500
vt 0.125000 0.875000
vt 0.125000 0.375000
vt 0.125000 0.812500
vt 0.125000 0.312500
vt 0.125000 0.750000
vt 0.125000 0.250000
vn 0.5989 0.0055 0.8008
vn -0.7402 -0.0208 0.6721
vn 0.4382 0.0014 0.8989
vn -0.8605 -0.0219 0.5091
vn 0.2674 -0.0026 0.9636
vn -0.9476 -0.0221 0.3188
vn 0.0911 -0.0065 0.9958
vn 0.9942 0.0195 0.1060
vn -0.9937 -0.0212 0.1098
vn -0.0870 -0.0101 0.9962
vn 0.9489 0.0168 0.3152
vn -0.2634 -0.0135 0.9646
vn 0.8625 0.0134 0.5058
vn -0.4345 -0.0165 0.9005
vn 0.7430 0.0096 0.6693
vn -0.5956 -0.0189 0.8031
vn -0.0903 0.1527 0.9841
vn 0.9478 0.0686 0.3114
vn -0.2667 0.1441 0.9530
vn 0.8608 0.0964 0.4997
vn -0.4376 0.1306 0.8896
vn 0.7407 0.1192 0.6612
vn -0.5983 0.1122 0.7934
vn 0.5962 0.1367 0.7911
vn -0.7425 0.0888 0.6640
vn 0.4352 0.1485 0.8880
vn -0.8622 0.0611 0.5029
vn 0.2641 0.1550 0.9520
vn -0.9486 0.0297 0.3149
vn 0.0877 0.1563 0.9838
vn 0.9938 0.0371 0.1047
vn -0.9941 -0.0037 0.1085
vn -0.7485 0.1955 0.6336
vn 0.4362 0.2929 0.8508
vn -0.8664 0.1414 0.4789
vn 0.2637 0.3102 0.9134
vn -0.9508 0.0798 0.2994
vn 0.0854 0.3168 0.9446
vn 0.9936 0.0541 0.0993
vn -0.9946 0.0134 0.1031
vn -0.0947 0.3131 0.9450
vn 0.9478 0.1187 0.2958
vn -0.2728 0.2992 0.9144
vn 0.8617 0.1768 0.4757
vn -0.4447 0.2749 0.8525
vn 0.7423 0.2260 0.6308
vn -0.6054 0.2403 0.7588
vn 0.5979 0.2649 0.7565
vn 0.9488 0.1652 0.2691
vn -0.2815 0.4500 0.8475
vn 0.8648 0.2523 0.4342
vn -0.4554 0.4142 0.7880
vn 0.7473 0.3273 0.5783
vn -0.6164 0.3628 0.6989
vn 0.6036 0.3878 0.6966
vn -0.7579 0.2964 0.5812
vn 0.4411 0.4326 0.7863
vn -0.8727 0.2166 0.4375
vn 0.2660 0.4612 0.8465
vn -0.9538 0.1262 0.2727
vn 0.0840 0.4736 0.8767
vn 0.9935 0.0698 0.0901
vn -0.9952 0.0291 0.0938
vn -0.1000 0.4698 0.8771
vn 0.4490 0.5641 0.6929
vn -0.8805 0.2841 0.3794
vn 0.2706 0.6050 0.7489
vn -0.9573 0.1673 0.2355
vn 0.0835 0.6236 0.7773
vn 0.9935 0.0837 0.0772
vn -0.9958 0.0429 0.0810
vn -0.1061 0.6197 0.7776
vn 0.9506 0.2064 0.2319
vn -0.2923 0.5934 0.7499
vn 0.8695 0.3200 0.3761
vn -0.4692 0.5453 0.6946
vn 0.7550 0.4197 0.5039
vn -0.6304 0.4764 0.6129
vn 0.6127 0.5019 0.6106
vn -0.7696 0.3884 0.5068
vn -0.5990 -0.0052 -0.8008
vn 0.7403 0.0211 -0.6720
vn -0.4383 -0.0011 -0.8988
vn 0.8605 0.0221 -0.5090
vn -0.2674 0.0030 -0.9636
vn 0.9476 0.0222 -0.3186
vn -0.0911 0.0069 -0.9958
vn -0.9942 -0.0195 -0.1055
vn 0.9938 0.0213 -0.1092
vn 0.0870 0.0106 -0.9962
vn -0.9489 -0.0167 -0.3151
vn 0.2634 0.0139 -0.9646
vn -0.8626 -0.0132 -0.5057
vn 0.4346 0.0168 -0.9005
vn -0.7430 -0.0093 -0.6692
vn 0.5956 0.0193 -0.8030
vn 0.0903 -0.1527 -0.9841
vn -0.9479 -0.0686 -0.3112
vn 0.2667 -0.1441 -0.9529
vn -0.8609 -0.0964 -0.4996
vn 0.4376 -0.1306 -0.8896
vn -0.7408 -0.1192 -0.6611
vn 0.5984 -0.1122 -0.7933
vn -0.5962 -0.1366 -0.7911
vn 0.7425 -0.0888 -0.6639
vn -0.4353 -0.1485 -0.8880
vn 0.8622 -0.0610 -0.5028
vn -0.2642 -0.1550 -0.9519
vn 0.9487 -0.0297 -0.3148
vn -0.0877 -0.1563 -0.9838
vn -0.9939 -0.0370 -0.1041
vn 0.9942 0.0038 -0.1079
vn 0.7486 -0.1955 -0.6336
vn -0.4363 -0.2929 -0.8508
vn 0.8664 -0.1414 -0.4788
vn -0.2637 -0.3102 -0.9134
vn 0.9508 -0.0797 -0.2993
vn -0.0854 -0.3168 -0.9446
vn -0.9937 -0.0539 -0.0987
vn 0.9946 -0.0132 -0.1025
vn 0.0947 -0.3131 -0.9450
vn -0.9479 -0.1186 -0.2957
vn 0.2728 -0.2992 -0.9144
vn -0.8617 -0.1768 -0.4756
vn 0.4447 -0.2749 -0.8524
vn -0.7423 -0.2260 -0.6308
vn 0.6054 -0.2402 -0.7588
vn -0.5979 -0.2649 -0.7565
vn -0.9489 -0.1651 -0.2690
vn 0.2815 -0.4500 -0.8475
vn -0.8648 -0.2522 -0.4342
vn 0.4555 -0.4142 -0.7880
vn -0.7473 -0.3272 -0.5783
vn 0.6165 -0.3628 -0.6988
vn -0.6037 -0.3878 -0.6965
vn 0.7579 -0.2964 -0.5811
vn -0.4411 -0.4326 -0.7863
vn 0.8728 -0.2166 -0.4374
vn -0.2660 -0.4612 -0.8465
vn 0.9538 -0.1262 -0.2726
vn -0.0840 -0.4736 -0.8767
vn -0.9936 -0.0696 -0.0895
vn 0.9952 -0.0288 -0.0933
vn 0.1000 -0.4698 -0.8771
vn -0.4491 -0.5644 -0.6926
vn 0.8806 -0.2842 -0.3792
vn -0.2706 -0.6053 -0.7486
vn 0.9574 -0.1674 -0.2354
vn -0.0835 -0.6240 -0.7770
vn -0.9936 -0.0834 -0.0769
vn 0.9958 -0.0426 -0.0806
vn 0.1061 -0.6201 -0.7773
vn -0.9506 -0.2065 -0.2318
vn 0.2924 -0.5938 -0.7496
vn -0.8696 -0.3201 -0.3759
vn 0.4692 -0.5456 -0.6943
vn -0.7551 -0.4198 -0.5036
vn 0.6305 -0.4766 -0.6126
vn -0.6127 -0.5021 -0.6103
vn 0.7697 -0.3886 -0.5065
vn 0.0525 -0.9869 -0.1525
vn 0.0505 -0.9873 -0.1506
vn 0.0525 -0.9869 -0.1524
vn 0.0653 -0.9888 -0.1345
vn 0.0732 -0.9908 -0.1134
vn 0.0732 -0.9932 -0.0907
vn 0.0651 -0.9954 -0.0697
vn 0.0503 -0.9973 -0.0536
vn 0.0309 -0.9985 -0.0448
vn 0.0099 -0.9989 -0.0447
vn -0.0096 -0.9985 -0.0534
vn -0.0246 -0.9973 -0.0695
vn -0.0328 -0.9954 -0.0905
vn -0.0330 -0.9930 -0.1132
vn -0.0252 -0.9906 -0.1343
vn -0.0105 -0.9886 -0.1505
vn -0.0126 -0.9882 -0.1524
vn -0.0125 -0.9883 -0.1523
vn 0.0162 0.5878 -0.8089
vn 0.0181 0.5865 -0.8097
vn 0.0143 0.5890 -0.8080
vn 0.0276 0.6000 -0.7996
vn 0.0347 0.6141 -0.7885
vn 0.0344 0.6292 -0.7765
vn 0.0267 0.6431 -0.7653
vn 0.0128 0.6535 -0.7568
vn -0.0052 0.6590 -0.7521
vn -0.0246 0.6586 -0.7521
vn -0.0424 0.6524 -0.7567
vn -0.0559 0.6414 -0.7652
vn -0.0631 0.6272 -0.7763
vn -0.0628 0.6121 -0.7883
vn -0.0552 0.5983 -0.7994
vn -0.0433 0.5866 -0.8088
vn -0.0414 0.5879 -0.8079
vn -0.0433 0.5865 -0.8088
vn 0.0545 -0.9865 -0.1543
vn -0.0146 -0.9879 -0.1541
vn -0.0452 0.5852 -0.8096
usemtl None
s 1
f 1/1/1 2/2/1 3/3/1 4/4/1
f 5/5/2 6/6/2 7/7/2 8/8/2
f 9/9/3 1/1/3 4/4/3 10/10/3
f 11/11/4 5/5/4 8/8/4 12/12/4
f 13/13/5 9/9/5 10/10/5 14/14/5
f 15/15/6 11/11/6 12/12/6 16/16/6
f 17/17/7 13/13/7 14/14/7 18/18/7
f 19/19/8 20/20/8 21/21/8
f 22/22/9 15/15/9 16/16/9
f 23/23/10 17/17/10 18/18/10 24/24/10
f 25/25/11 19/19/11 21/21/11 26/26/11
f 27/27/12 23/23/12 24/24/12 28/28/12
f 29/29/13 25/25/13 26/26/13 30/30/13
f 31/31/14 27/27/14 28/28/14 32/32/14
f 2/2/15 29/29/15 30/30/15 3/3/15
f 6/6/16 31/31/16 32/32/16 7/7/16
f 24/24/17 18/18/17 33/33/17 34/34/17
f 26/26/18 21/21/18 35/35/18 36/36/18
f 28/28/19 24/24/19 34/34/19 37/37/19
f 30/30/20 26/26/20 36/36/20 38/38/20
f 32/32/21 28/28/21 37/37/21 39/39/21
f 3/3/22 30/30/22 38/38/22 40/40/22
f 7/7/23 32/32/23 39/39/23 41/41/23
f 4/4/24 3/3/24 40/40/24 42/42/24
f 8/8/25 7/7/25 41/41/25 43/43/25
f 10/10/26 4/4/26 42/42/26 44/44/26
f 12/12/27 8/8/27 43/43/27 45/45/27
f 14/14/28 10/10/28 44/44/28 46/46/28
f 16/16/29 12/12/29 45/45/29 47/47/29
f 18/18/30 14/14/30 46/46/30 33/33/30
f 21/21/31 20/48/31 35/35/31
f 22/49/32 16/16/32 47/47/32
f 43/43/33 41/41/33 48/50/33 49/51/33
f 44/44/34 42/42/34 50/52/34 51/53/34
f 45/45/35 43/43/35 49/51/35 52/54/35
f 46/46/36 44/44/36 51/53/36 53/55/36
f 47/47/37 45/45/37 52/54/37 54/56/37
f 33/33/38 46/46/38 53/55/38 55/57/38
f 35/35/39 20/58/39 56/59/39
f 22/60/40 47/47/40 54/56/40
f 34/34/41 33/33/41 55/57/41 57/61/41
f 36/36/42 35/35/42 56/59/42 58/62/42
f 37/37/43 34/34/43 57/61/43 59/63/43
f 38/38/44 36/36/44 58/62/44 60/64/44
f 39/39/45 37/37/45 59/63/45 61/65/45
f 40/40/46 38/38/46 60/64/46 62/66/46
f 41/41/47 39/39/47 61/65/47 48/50/47
f 42/42/48 40/40/48 62/66/48 50/52/48
f 58/62/49 56/59/49 63/67/49 64/68/49
f 59/63/50 57/61/50 65/69/50 66/70/50
f 60/64/51 58/62/51 64/68/51 67/71/51
f 61/65/52 59/63/52 66/70/52 68/72/52
f 62/66/53 60/64/53 67/71/53 69/73/53
f 48/50/54 61/65/54 68/72/54 70/74/54
f 50/52/55 62/66/55 69/73/55 71/75/55
f 49/51/56 48/50/56 70/74/56 72/76/56
f 51/53/57 50/52/57 71/75/57 73/77/57
f 52/54/58 49/51/58 72/76/58 74/78/58
f 53/55/59 51/53/59 73/77/59 75/79/59
f 54/56/60 52/54/60 74/78/60 76/80/60
f 55/57/61 53/55/61 75/79/61 77/81/61
f 56/59/62 20/82/62 63/67/62
f 22/83/63 54/56/63 76/80/63
f 57/61/64 55/57/64 77/81/64 65/69/64
f 73/77/65 71/75/65 78/84/65 79/85/65
f 74/78/66 72/76/66 80/86/66 81/87/66
f 75/79/67 73/77/67 79/85/67 82/88/67
f 76/80/68 74/78/68 81/87/68 83/89/68
f 77/81/69 75/79/69 82/88/69 84/90/69
f 63/67/70 20/91/70 85/92/70
f 22/93/71 76/80/71 83/89/71
f 65/69/72 77/81/72 84/90/72 86/94/72
f 64/68/73 63/67/73 85/92/73 87/95/73
f 66/70/74 65/69/74 86/94/74 88/96/74
f 67/71/75 64/68/75 87/95/75 89/97/75
f 68/72/76 66/70/76 88/96/76 90/98/76
f 69/73/77 67/71/77 89/97/77 91/99/77
f 70/74/78 68/72/78 90/98/78 92/100/78
f 71/75/79 69/73/79 91/99/79 78/84/79
f 72/76/80 70/74/80 92/100/80 80/86/80
f 93/101/81 94/102/81 95/103/81 96/104/81
f 97/105/82 98/106/82 99/107/82 100/108/82
f 101/109/83 102/110/83 94/102/83 93/101/83
f 103/111/84 104/112/84 98/106/84 97/105/84
f 105/113/85 106/114/85 102/110/85 101/109/85
f 107/115/86 108/116/86 104/112/86 103/111/86
f 109/117/87 110/118/87 106/114/87 105/113/87
f 111/119/88 112/120/88 113/121/88
f 114/122/89 108/116/89 107/115/89
f 115/123/90 116/124/90 110/118/90 109/117/90
f 117/125/91 118/126/91 112/120/91 111/119/91
f 119/127/92 120/128/92 116/124/92 115/123/92
f 121/129/93 122/130/93 118/126/93 117/125/93
f 123/131/94 124/132/94 120/128/94 119/127/94
f 96/104/95 95/103/95 122/130/95 121/129/95
f 100/108/96 99/107/96 124/132/96 123/131/96
f 116/124/97 125/133/97 126/134/97 110/118/97
f 118/126/98 127/135/98 128/136/98 112/120/98
f 120/128/99 129/137/99 125/133/99 116/124/99
f 122/130/100 130/138/100 127/135/100 118/126/100
f 124/132/101 131/139/101 129/137/101 120/128/101
f 95/103/102 132/140/102 130/138/102 122/130/102
f 99/107/103 133/141/103 131/139/103 124/132/103
f 94/102/104 134/142/104 132/140/104 95/103/104
f 98/106/105 135/143/105 133/141/105 99/107/105
f 102/110/106 136/144/106 134/142/106 94/102/106
f 104/112/107 137/145/107 135/143/107 98/106/107
f 106/114/108 138/146/108 136/144/108 102/110/108
f 108/116/109 139/147/109 137/145/109 104/112/109
f 110/118/110 126/134/110 138/146/110 106/114/110
f 112/120/111 128/136/111 113/148/111
f 114/149/112 139/147/112 108/116/112
f 135/143/113 140/150/113 141/151/113 133/141/113
f 136/144/114 142/152/114 143/153/114 134/142/114
f 137/145/115 144/154/115 140/150/115 135/143/115
f 138/146/116 145/155/116 142/152/116 136/144/116
f 139/147/117 146/156/117 144/154/117 137/145/117
f 126/134/118 147/157/118 145/155/118 138/146/118
f 128/136/119 148/158/119 113/159/119
f 114/160/120 146/156/120 139/147/120
f 125/133/121 149/161/121 147/157/121 126/134/121
f 127/135/122 150/162/122 148/158/122 128/136/122
f 129/137/123 151/163/123 149/161/123 125/133/123
f 130/138/124 152/164/124 150/162/124 127/135/124
f 131/139/125 153/165/125 151/163/125 129/137/125
f 132/140/126 154/166/126 152/164/126 130/138/126
f 133/141/127 141/151/127 153/165/127 131/139/127
f 134/142/128 143/153/128 154/166/128 132/140/128
f 150/162/129 155/167/129 156/168/129 148/158/129
f 151/163/130 157/169/130 158/170/130 149/161/130
f 152/164/131 159/171/131 155/167/131 150/162/131
f 153/165/132 160/172/132 157/169/132 151/163/132
f 154/166/133 161/173/133 159/171/133 152/164/133
f 141/151/134 162/174/134 160/172/134 153/165/134
f 143/153/135 163/175/135 161/173/135 154/166/135
f 140/150/136 164/176/136 162/174/136 141/151/136
f 142/152/137 165/177/137 163/175/137 143/153/137
f 144/154/138 166/178/138 164/176/138 140/150/138
f 145/155/139 167/179/139 165/177/139 142/152/139
f 146/156/140 168/180/140 166/178/140 144/154/140
f 147/157/141 169/181/141 167/179/141 145/155/141
f 148/158/142 156/168/142 113/182/142
f 114/183/143 168/180/143 146/156/143
f 149/161/144 158/170/144 169/181/144 147/157/144
f 165/177/145 170/184/145 171/185/145 163/175/145
f 166/178/146 172/186/146 173/187/146 164/176/146
f 167/179/147 174/188/147 170/184/147 165/177/147
f 168/180/148 175/189/148 172/186/148 166/178/148
f 169/181/149 176/190/149 174/188/149 167/179/149
f 156/168/150 177/191/150 113/192/150
f 114/193/151 175/189/151 168/180/151
f 158/170/152 178/194/152 176/190/152 169/181/152
f 155/167/153 179/195/153 177/191/153 156/168/153
f 157/169/154 180/196/154 178/194/154 158/170/154
f 159/171/155 181/197/155 179/195/155 155/167/155
f 160/172/156 182/198/156 180/196/156 157/169/156
f 161/173/157 183/199/157 181/197/157 159/171/157
f 162/174/158 184/200/158 182/198/158 160/172/158
f 163/175/159 171/185/159 183/199/159 161/173/159
f 164/176/160 173/187/160 184/200/160 162/174/160
f 19/19/161 25/25/162 117/125/162 111/119/163
f 25/25/164 29/29/164 121/129/164 117/125/164
f 29/29/165 2/2/165 96/104/165 121/129/165
f 2/2/166 1/1/166 93/101/166 96/104/166
f 1/1/167 9/9/167 101/109/167 93/101/167
f 9/9/168 13/13/168 105/113/168 101/109/168
f 13/13/169 17/17/169 109/117/169 105/113/169
f 17/17/170 23/23/170 115/123/170 109/117/170
f 23/23/171 27/27/171 119/127/171 115/123/171
f 27/27/172 31/31/172 123/131/172 119/127/172
f 31/31/173 6/6/173 100/108/173 123/131/173
f 6/6/174 5/5/174 97/105/174 100/108/174
f 5/5/175 11/11/175 103/111/175 97/105/175
f 11/11/176 15/15/177 107/115/178 103/111/176
f 85/92/179 20/91/180 113/192/180 177/191/179
f 87/95/181 85/92/179 177/191/179 179/195/181
f 89/97/182 87/95/182 179/195/182 181/197/182
f 91/99/183 89/97/183 181/197/183 183/199/183
f 78/84/184 91/99/184 183/199/184 171/185/184
f 79/85/185 78/84/185 171/185/185 170/184/185
f 82/88/186 79/85/186 170/184/186 174/188/186
f 84/90/187 82/88/187 174/188/187 176/190/187
f 86/94/188 84/90/188 176/190/188 178/194/188
f 88/96/189 86/94/189 178/194/189 180/196/189
f 90/98/190 88/96/190 180/196/190 182/198/190
f 92/100/191 90/98/191 182/198/191 184/200/191
f 80/86/192 92/100/192 184/200/192 173/187/192
f 81/87/193 80/86/193 173/187/193 172/186/193
f 83/89/194 81/87/195 172/186/195 175/189/196
f 20/20/197 19/19/161 111/119/163 113/121/197
f 15/15/177 22/22/198 114/122/198 107/115/178
f 22/93/199 83/89/194 175/189/196 114/193/199
