# Blender v2.82 (sub 7) OBJ File: 'township.blend'
# www.blender.org
mtllib township.mtl
o Cube
v 5.025944 1.000000 -5.063575
v 5.025944 -1.000000 -5.063575
v 5.025944 1.000000 5.063575
v 5.025944 -1.000000 5.063575
v -5.254126 1.000000 -5.063575
v -5.254126 -1.000000 -5.063575
v -4.734876 1.000000 4.892399
v -4.315382 1.000000 5.063575
v -4.315382 -1.000000 5.063575
v -4.734876 -1.000000 4.892399
v -5.254126 1.000000 4.128870
v -5.073242 1.000000 4.559067
v -5.073242 -1.000000 4.559067
v -5.254126 -1.000000 4.128870
v -5.254126 1.000000 -5.063575
v -4.734876 1.000000 4.892399
v -4.315382 1.000000 5.063575
v -5.254126 1.000000 4.128870
v -5.073242 1.000000 4.559067
v -5.254126 1.000000 -5.063575
v -4.734876 1.000000 4.892399
v -4.315382 1.000000 5.063575
v -5.254126 1.000000 4.128870
v -5.073242 1.000000 4.559067
v -5.254126 2.029788 -5.063575
v -4.734876 2.029788 4.892399
v -4.315382 2.029788 5.063575
v -5.254126 2.029788 4.128870
v -5.073242 2.029788 4.559067
vt 0.375000 0.750000
vt 0.625000 0.750000
vt 0.625000 0.977171
vt 0.375000 0.977171
vt 0.375000 0.500000
vt 0.625000 0.500000
vt 0.375000 0.250000
vt 0.625000 0.250000
vt 0.125000 0.500000
vt 0.147829 0.750000
vt 0.137628 0.745774
vt 0.129399 0.737546
vt 0.125000 0.726926
vt 0.625000 0.987372
vt 0.375000 0.987372
vt 0.375000 0.023074
vt 0.625000 0.023074
vt 0.375000 0.016853
vt 0.625000 0.016853
vt 0.625000 0.995601
vt 0.375000 0.995601
vt 0.875000 0.726926
vt 0.870601 0.737546
vt 0.870601 0.737546
vt 0.875000 0.726926
vt 0.862372 0.745774
vt 0.852171 0.750000
vt 0.852171 0.750000
vt 0.862372 0.745774
vt 0.875000 0.500000
vt 0.875000 0.500000
vt 0.875000 0.726926
vt 0.875000 0.500000
vt 0.870601 0.737546
vt 0.862372 0.745774
vt 0.852171 0.750000
vt 0.852171 0.750000
vt 0.862372 0.745774
vt 0.875000 0.726926
vt 0.875000 0.500000
vt 0.870601 0.737546
vn 0.0000 0.0000 1.0000
vn 1.0000 0.0000 0.0000
vn 0.0000 0.0000 -1.0000
vn 0.0000 -1.0000 0.0000
vn -0.3778 0.0000 0.9259
vn -1.0000 0.0000 0.0000
vn -0.9218 0.0000 0.3876
vn -0.7018 0.0000 0.7124
vn 0.0000 1.0000 0.0000
usemtl Material
s off
f 4/1/1 3/2/1 8/3/1 9/4/1
f 2/5/2 1/6/2 3/2/2 4/1/2
f 6/7/3 5/8/3 1/6/3 2/5/3
f 6/9/4 2/5/4 4/1/4 9/10/4 10/11/4 13/12/4 14/13/4
f 9/4/5 8/3/5 7/14/5 10/15/5
f 14/16/6 11/17/6 5/8/6 6/7/6
f 11/17/7 14/16/7 13/18/7 12/19/7
f 10/15/8 7/14/8 12/20/8 13/21/8
f 11/22/1 12/23/1 19/24/1 18/25/1
f 7/26/1 8/27/1 17/28/1 16/29/1
f 5/30/1 11/22/1 18/25/1 15/31/1
f 12/23/1 7/26/1 16/29/1 19/24/1
f 15/31/1 18/25/1 23/32/1 20/33/1
f 18/25/1 19/24/1 24/34/1 23/32/1
f 19/24/1 16/29/1 21/35/1 24/34/1
f 16/29/1 17/28/1 22/36/1 21/35/1
f 21/35/5 22/36/5 27/37/5 26/38/5
f 20/33/6 23/32/6 28/39/6 25/40/6
f 23/32/7 24/34/7 29/41/7 28/39/7
f 24/34/8 21/35/8 26/38/8 29/41/8
usemtl GROUND
f 1/6/9 5/30/9 11/22/9 12/23/9 7/26/9 8/27/9 3/2/9
o Cube.001
v -5.258945 0.958372 1.945302
v -5.258945 1.693514 -1.526213
v -5.258945 0.958372 -5.076356
v -5.258945 1.693514 -5.076356
v 5.030964 0.958372 1.945302
v 5.030964 1.693514 -1.526213
v 5.030964 0.958372 -5.076356
v 5.030964 1.693514 -5.076356
v -5.308811 -0.984499 1.939371
v -5.308811 6.496799 1.939371
v -5.308811 -0.984499 -6.445044
v -5.308811 6.496799 -6.445044
v -1.998774 -0.984499 -6.445044
v -1.998774 6.496799 -6.445044
v -3.484719 -0.984499 1.939371
v -3.484719 6.496799 1.939371
v -1.998774 -0.984499 0.473317
v -2.467223 -0.984499 1.245049
v -2.467223 6.496799 1.245049
v -1.998774 6.496799 0.473317
vt 0.375000 0.000000
vt 0.625000 0.000000
vt 0.625000 0.250000
vt 0.375000 0.250000
vt 0.625000 0.500000
vt 0.375000 0.500000
vt 0.625000 0.750000
vt 0.375000 0.750000
vt 0.125000 0.500000
vt 0.125000 0.750000
vt 0.375000 0.000000
vt 0.625000 0.000000
vt 0.625000 0.250000
vt 0.375000 0.250000
vt 0.625000 0.500000
vt 0.375000 0.500000
vt 0.125000 0.500000
vt 0.375000 0.706286
vt 0.339619 0.729297
vt 0.262770 0.750000
vt 0.125000 0.750000
vt 0.625000 1.000000
vt 0.375000 1.000000
vt 0.875000 0.500000
vt 0.875000 0.750000
vt 0.375000 0.862230
vt 0.625000 0.862230
vt 0.625000 1.000000
vt 0.375000 1.000000
vt 0.875000 0.500000
vt 0.875000 0.750000
vt 0.737230 0.750000
vt 0.660381 0.729297
vt 0.625000 0.706286
vt 0.375000 0.764678
vt 0.625000 0.764678
vn -1.0000 0.0000 0.0000
vn 0.0000 0.0000 -1.0000
vn 1.0000 0.0000 0.0000
vn 0.0000 -1.0000 0.0000
vn 0.0000 0.9783 0.2072
vn 0.0000 1.0000 0.0000
vn 0.0000 0.0000 1.0000
vn 0.5637 0.0000 0.8260
vn 0.8548 0.0000 0.5189
usemtl Material.001
s off
f 30/42/10 31/43/10 33/44/10 32/45/10
f 32/45/11 33/44/11 37/46/11 36/47/11
f 36/47/12 37/46/12 35/48/12 34/49/12
f 32/50/13 36/47/13 34/49/13 30/51/13
f 38/52/10 39/53/10 41/54/10 40/55/10
f 40/55/11 41/54/11 43/56/11 42/57/11
f 40/58/13 42/57/13 46/59/13 47/60/13 44/61/13 38/62/13
usemtl GROUND.001
f 34/49/14 35/48/14 31/63/14 30/64/14
f 37/46/15 33/65/15 31/66/15 35/48/15
usemtl BUILDING
f 44/67/16 45/68/16 39/69/16 38/70/16
f 43/56/15 41/71/15 39/72/15 45/73/15 48/74/15 49/75/15
f 42/57/12 43/56/12 49/75/12 46/59/12
f 45/68/17 44/67/17 47/76/17 48/77/17
f 46/59/18 49/75/18 48/77/18 47/76/18
o Cube.002
v -5.251096 1.683812 -3.322797
v -5.251096 2.418954 -4.863398
v -5.251096 1.683812 -6.438893
v -5.251096 2.418954 -6.438893
v 5.038814 1.683812 -3.322797
v 5.038814 2.418954 -4.863398
v 5.038814 1.683812 -6.438893
v 5.038814 2.418954 -6.438893
vt 0.375000 0.000000
vt 0.625000 0.000000
vt 0.625000 0.250000
vt 0.375000 0.250000
vt 0.625000 0.500000
vt 0.375000 0.500000
vt 0.625000 0.750000
vt 0.375000 0.750000
vt 0.625000 1.000000
vt 0.375000 1.000000
vt 0.125000 0.500000
vt 0.125000 0.750000
vt 0.875000 0.500000
vt 0.875000 0.750000
vn -1.0000 0.0000 0.0000
vn 0.0000 0.0000 -1.0000
vn 1.0000 0.0000 0.0000
vn 0.0000 0.9025 0.4307
vn 0.0000 -1.0000 0.0000
vn 0.0000 1.0000 0.0000
usemtl GROUND.002
s off
f 50/78/19 51/79/19 53/80/19 52/81/19
f 52/81/20 53/80/20 57/82/20 56/83/20
f 56/83/21 57/82/21 55/84/21 54/85/21
f 54/85/22 55/84/22 51/86/22 50/87/22
f 52/88/23 56/83/23 54/85/23 50/89/23
f 57/82/24 53/90/24 51/91/24 55/84/24
o Cube.003
v 3.984004 -0.843494 5.040494
v 3.984004 3.169442 5.040494
v 3.984004 -0.843494 -6.436657
v 3.984004 5.219255 -6.436657
v 5.040494 -0.843494 5.040494
v 5.040494 3.169442 5.040494
v 5.040494 -0.843494 -6.436657
v 5.040494 5.219255 -6.436657
v 3.984004 3.856252 3.997117
v 3.984004 3.856252 2.953739
v 3.984004 3.856252 1.910362
v 3.984004 4.599362 0.866985
v 3.984004 4.599362 -0.176393
v 3.984004 4.599362 -1.219770
v 3.984004 4.599362 -2.263148
v 3.984004 5.219255 -3.306525
v 3.984004 5.219255 -4.349902
v 3.984004 5.219255 -5.393280
v 5.040494 5.219255 -5.393280
v 5.040494 5.219255 -4.349902
v 5.040494 5.219255 -3.306525
v 5.040494 4.599362 -2.263148
v 5.040494 4.599362 -1.219770
v 5.040494 4.599362 -0.176393
v 5.040494 4.599362 0.866985
v 5.040494 3.856252 1.910362
v 5.040494 3.856252 2.953739
v 5.040494 3.856252 3.997117
v 4.939890 3.667521 4.281622
v 4.738820 3.921417 3.292805
vt 0.375000 0.000000
vt 0.625000 0.000000
vt 0.625000 0.022727
vt 0.625000 0.045455
vt 0.625000 0.068182
vt 0.625000 0.090909
vt 0.625000 0.113636
vt 0.625000 0.136364
vt 0.625000 0.159091
vt 0.625000 0.181818
vt 0.625000 0.204545
vt 0.625000 0.227273
vt 0.625000 0.250000
vt 0.375000 0.250000
vt 0.625000 0.500000
vt 0.375000 0.500000
vt 0.625000 0.522727
vt 0.625000 0.545455
vt 0.625000 0.568182
vt 0.625000 0.590909
vt 0.625000 0.613636
vt 0.625000 0.636364
vt 0.625000 0.659091
vt 0.625000 0.681818
vt 0.625000 0.704545
vt 0.625000 0.727273
vt 0.625000 0.750000
vt 0.375000 0.750000
vt 0.625000 1.000000
vt 0.375000 1.000000
vt 0.125000 0.500000
vt 0.125000 0.750000
vt 0.875000 0.727273
vt 0.875000 0.750000
vt 0.875000 0.500000
vt 0.875000 0.522727
vt 0.875000 0.545455
vt 0.875000 0.568182
vt 0.875000 0.590909
vt 0.875000 0.613636
vt 0.875000 0.636364
vt 0.875000 0.659091
vt 0.875000 0.681818
vt 0.875000 0.704545
vn -1.0000 -0.0000 0.0000
vn 0.0000 0.0000 -1.0000
vn 1.0000 0.0000 0.0000
vn 0.0000 0.0000 1.0000
vn 0.0000 -1.0000 0.0000
vn 0.0000 0.8353 0.5498
vn 0.0000 1.0000 0.0000
vn -0.0000 0.8597 0.5108
vn -0.0000 0.8145 0.5801
usemtl None
s off
f 58/92/25 59/93/25 66/94/25 67/95/25 68/96/25 69/97/25 70/98/25 71/99/25 72/100/25 73/101/25 74/102/25 75/103/25 61/104/25 60/105/25
f 60/105/26 61/104/26 65/106/26 64/107/26
f 64/107/27 65/106/27 76/108/27 77/109/27 78/110/27 79/111/27 80/112/27 81/113/27 82/114/27 83/115/27 84/116/27 85/117/27 63/118/27 62/119/27
f 62/119/28 63/118/28 59/120/28 58/121/28
f 60/122/29 64/107/29 62/119/29 58/123/29
f 85/117/30 66/124/30 59/125/30 63/118/30
f 65/106/31 61/126/31 75/127/31 76/108/31
f 76/108/31 75/127/31 74/128/31 77/109/31
f 77/109/31 74/128/31 73/129/31 78/110/31
f 78/110/32 73/129/32 72/130/32 79/111/32
f 79/111/31 72/130/31 71/131/31 80/112/31
f 80/112/31 71/131/31 70/132/31 81/113/31
f 81/113/31 70/132/31 69/133/31 82/114/31
f 82/114/33 69/133/33 68/134/33 83/115/33
f 83/115/31 68/134/31 67/135/31 84/116/31
f 84/116/31 67/135/31 66/124/31 85/117/31
l 59 86
l 66 87
o Cube.004
v 1.017970 1.257926 -3.321712
v 1.017970 5.271543 -3.321712
v 1.017970 1.257926 -4.865246
v 1.017970 5.271543 -4.865246
v 3.976571 1.257926 -3.321712
v 3.976571 5.271543 -3.321712
v 3.976571 1.257926 -4.865246
v 3.976571 5.271543 -4.865246
vt 0.375000 0.000000
vt 0.625000 0.000000
vt 0.625000 0.250000
vt 0.375000 0.250000
vt 0.625000 0.500000
vt 0.375000 0.500000
vt 0.625000 0.750000
vt 0.375000 0.750000
vt 0.625000 1.000000
vt 0.375000 1.000000
vt 0.125000 0.500000
vt 0.125000 0.750000
vt 0.875000 0.500000
vt 0.875000 0.750000
vn -1.0000 0.0000 0.0000
vn 0.0000 0.0000 -1.0000
vn 1.0000 0.0000 0.0000
vn 0.0000 0.0000 1.0000
vn 0.0000 -1.0000 0.0000
vn 0.0000 1.0000 0.0000
usemtl None
s off
f 88/136/34 89/137/34 91/138/34 90/139/34
f 90/139/35 91/138/35 95/140/35 94/141/35
f 94/141/36 95/140/36 93/142/36 92/143/36
f 92/143/37 93/142/37 89/144/37 88/145/37
f 90/146/38 94/141/38 92/143/38 88/147/38
f 95/140/39 91/148/39 89/149/39 93/142/39
o Cube.005
v 0.935544 3.866462 -1.515322
v 3.988674 -1.027040 1.792756
v 3.988674 3.866462 1.792756
v 3.988674 -1.027040 -1.515322
v 3.988674 3.866462 0.138717
v 0.935544 3.866462 0.138717
v 2.462109 3.866462 -1.515322
v 3.988674 3.866462 0.138717
v 2.462109 3.866462 1.792756
v 2.462109 3.866462 0.138717
v 2.462109 1.685712 -1.515322
v 3.988674 1.673731 0.138717
v 3.988674 1.685712 0.138717
v 2.462109 1.685712 0.138717
v 2.462109 1.673731 0.138717
v 2.462109 3.885712 0.138717
v 2.462109 3.885712 -1.515322
v 3.988674 1.685712 -1.523814
v 2.462109 1.685712 -1.523814
v 2.462109 3.866462 0.138717
v 3.988674 1.685712 0.138717
v 2.462109 1.685712 0.138717
v 3.988674 3.866462 0.138717
v 2.462109 1.685712 0.138717
v 3.988674 1.685712 0.138717
v 2.462109 3.866462 0.138717
v 0.935544 0.463461 -1.515322
v 2.462109 0.463461 -1.515322
v 1.494032 -1.027040 -1.515322
v 0.935544 -0.131905 -1.515322
v 1.057184 -0.326868 1.319429
v 0.935544 -0.131905 1.001241
v 0.935544 3.866462 1.001241
v 1.057184 3.866462 1.319429
v 1.661882 -1.027040 1.792756
v 1.375345 -0.836810 1.664157
v 1.494032 -1.027040 1.610890
v 1.375345 3.866462 1.664157
v 1.661882 3.866462 1.792756
vt 0.170731 0.500000
vt 0.170731 0.736256
vt 0.161012 0.740282
vt 0.134960 0.714229
vt 0.125000 0.690183
vt 0.125000 0.500000
vt 0.000000 0.000000
vt 0.000000 0.000000
vt 0.000000 0.000000
vt 0.000000 0.000000
vt 0.750000 0.625000
vt 0.625000 0.625000
vt 0.625000 0.625000
vt 0.750000 0.625000
vt 0.625000 0.625000
vt 0.750000 0.625000
vt 0.750000 0.750000
vt 0.625000 0.750000
vt 0.750000 0.500000
vt 0.875000 0.500000
vt 0.875000 0.625000
vt 0.000000 0.000000
vt 0.000000 0.000000
vt 0.000000 0.000000
vt 0.000000 0.000000
vt 0.000000 0.000000
vt 0.000000 0.000000
vt 0.000000 0.000000
vt 0.625000 0.625000
vt 0.750000 0.625000
vt 0.750000 0.500000
vt 0.875000 0.500000
vt 0.420731 0.059817
vt 0.625000 0.059817
vt 0.625000 0.125000
vt 0.625000 0.250000
vt 0.420731 0.250000
vt 0.875000 0.690183
vt 0.865040 0.714229
vt 0.838988 0.740281
vt 0.815525 0.750000
vt 0.384719 0.963988
vt 0.625000 0.963988
vt 0.625000 0.990040
vt 0.410771 0.990040
vt 0.420731 0.045731
vt 0.625000 0.045731
vt 0.375000 0.750000
vt 0.625000 0.875000
vt 0.625000 0.940525
vt 0.375000 0.940525
vt 0.384719 0.954269
vt 0.375000 0.954269
vt 0.375000 0.500000
vt 0.184475 0.750000
vn -0.8484 -0.5293 0.0000
vn 1.0000 0.0000 0.0000
vn 0.0000 0.0000 1.0000
vn 0.0000 1.0000 0.0000
vn 0.0000 0.0000 -1.0000
vn -1.0000 -0.0000 0.0000
vn -0.7349 0.0000 0.6782
vn -0.9341 0.0000 0.3571
vn -0.6166 -0.5440 0.5691
vn -0.4095 0.0000 0.9123
vn 0.0000 -1.0000 0.0000
usemtl None
s off
f 124/150/40 132/151/40 131/152/40 126/153/40 127/154/40 125/155/40
f 109/156/41 106/157/41 112/158/41 111/159/41
f 121/160/42 100/161/42 118/162/42 115/163/42
f 103/164/43 105/165/43 104/166/43 98/167/43
f 105/165/42 103/164/42 100/161/42 121/160/42
f 102/168/43 96/169/43 101/170/43 105/165/43
f 120/171/42 119/172/42 117/173/42 116/174/42
f 108/175/42 109/156/42 119/172/42 120/171/42
f 119/172/43 120/171/43 113/176/43 114/177/43
f 115/163/44 118/162/44 107/178/44 110/179/44
f 96/169/44 102/168/44 123/180/44 122/181/44
f 127/182/45 128/183/45 101/184/45 96/185/45 125/186/45
f 105/165/43 101/170/43 128/187/43 129/188/43 133/189/43 134/190/43 104/166/43
f 131/191/46 133/192/46 129/193/46 126/194/46
f 128/183/47 127/182/47 126/195/47 129/196/47
f 97/197/42 98/167/42 104/198/42 134/199/42 130/200/42
f 130/200/48 131/201/48 132/202/48
f 130/200/49 134/199/49 133/192/49 131/191/49
f 124/150/50 99/203/50 97/197/50 130/204/50 132/151/50
l 105 109
o Cube.006
v -2.828208 0.875470 -6.338581
v -2.828208 2.875470 -6.338581
v -2.828208 0.875470 -6.432444
v -2.828208 2.875470 -6.432444
v 5.095599 0.875470 -6.338581
v 5.095599 2.875470 -6.338581
v 5.095599 0.875470 -6.432444
v 5.095599 2.875470 -6.432444
vt 0.375000 0.000000
vt 0.625000 0.000000
vt 0.625000 0.250000
vt 0.375000 0.250000
vt 0.625000 0.500000
vt 0.375000 0.500000
vt 0.625000 0.750000
vt 0.375000 0.750000
vt 0.625000 1.000000
vt 0.375000 1.000000
vt 0.125000 0.500000
vt 0.125000 0.750000
vt 0.875000 0.500000
vt 0.875000 0.750000
vn -1.0000 0.0000 0.0000
vn 0.0000 0.0000 -1.0000
vn 1.0000 0.0000 0.0000
vn 0.0000 0.0000 1.0000
vn 0.0000 -1.0000 0.0000
vn 0.0000 1.0000 0.0000
usemtl None
s off
f 135/205/51 136/206/51 138/207/51 137/208/51
f 137/208/52 138/207/52 142/209/52 141/210/52
f 141/210/53 142/209/53 140/211/53 139/212/53
f 139/212/54 140/211/54 136/213/54 135/214/54
f 137/215/55 141/210/55 139/212/55 135/216/55
f 142/209/56 138/217/56 136/218/56 140/211/56
o Cube.007
v -4.363246 -0.726117 5.068801
v -4.363246 1.273883 5.068801
v -4.363246 -0.726117 4.967963
v -4.363246 1.273883 4.967963
v 4.149301 -0.726117 5.068801
v 4.149301 1.273883 5.068801
v 4.149301 -0.726117 4.967963
v 4.149301 1.273883 4.967963
vt 0.375000 0.000000
vt 0.625000 0.000000
vt 0.625000 0.250000
vt 0.375000 0.250000
vt 0.625000 0.500000
vt 0.375000 0.500000
vt 0.625000 0.750000
vt 0.375000 0.750000
vt 0.625000 1.000000
vt 0.375000 1.000000
vt 0.125000 0.500000
vt 0.125000 0.750000
vt 0.875000 0.500000
vt 0.875000 0.750000
vn -1.0000 0.0000 0.0000
vn 0.0000 0.0000 -1.0000
vn 1.0000 0.0000 0.0000
vn 0.0000 0.0000 1.0000
vn 0.0000 -1.0000 0.0000
vn 0.0000 1.0000 0.0000
usemtl None
s off
f 143/219/57 144/220/57 146/221/57 145/222/57
f 145/222/58 146/221/58 150/223/58 149/224/58
f 149/224/59 150/223/59 148/225/59 147/226/59
f 147/226/60 148/225/60 144/227/60 143/228/60
f 145/229/61 149/224/61 147/226/61 143/230/61
f 150/223/62 146/231/62 144/232/62 148/225/62
o Cube.008
v -6.117955 0.753422 3.822930
v -6.117955 2.753422 3.822930
v -6.117955 0.753422 1.822930
v -6.117955 2.753422 1.822930
v -4.117955 0.753422 3.822930
v -4.117955 2.753422 3.822930
v -4.117955 0.753422 1.822930
v -4.117955 2.753422 1.822930
vt 0.375000 0.000000
vt 0.625000 0.000000
vt 0.625000 0.250000
vt 0.375000 0.250000
vt 0.625000 0.500000
vt 0.375000 0.500000
vt 0.625000 0.750000
vt 0.375000 0.750000
vt 0.625000 1.000000
vt 0.375000 1.000000
vt 0.125000 0.500000
vt 0.125000 0.750000
vt 0.875000 0.500000
vt 0.875000 0.750000
vn -1.0000 0.0000 0.0000
vn 0.0000 0.0000 -1.0000
vn 1.0000 0.0000 0.0000
vn 0.0000 0.0000 1.0000
vn 0.0000 -1.0000 0.0000
vn 0.0000 1.0000 0.0000
usemtl None
s off
f 151/233/63 152/234/63 154/235/63 153/236/63
f 153/236/64 154/235/64 158/237/64 157/238/64
f 157/238/65 158/237/65 156/239/65 155/240/65
f 155/240/66 156/239/66 152/241/66 151/242/66
f 153/243/67 157/238/67 155/240/67 151/244/67
f 158/237/68 154/245/68 152/246/68 156/239/68
